<?xml version="1.0" encoding="utf-8"?>
<!-- Generator: Adobe Illustrator 23.0.1, SVG Export Plug-In . SVG Version: 6.00 Build 0)  -->
<svg version="1.1" id="Layer_1" xmlns="http://www.w3.org/2000/svg" xmlns:xlink="http://www.w3.org/1999/xlink" x="0px" y="0px"
	 viewBox="0 0 32 32" style="enable-background:new 0 0 32 32;" xml:space="preserve">
<style type="text/css">
	.st0{fill:none;}
	.st1{fill:#6C7171;}
	.st2{fill:#64788D;}
	.st3{fill:#D6002B;}
	.st4{fill:none;stroke:#65788D;stroke-width:2;stroke-miterlimit:10;}
	.st5{fill:none;stroke:#66788D;stroke-miterlimit:10;}
	.st6{fill:#D6002B;stroke:#D60F2D;stroke-width:0.5;stroke-miterlimit:10;}
</style>
<g>
	<rect y="-38.5" class="st0" width="32" height="32"/>
	<path class="st1" d="M16-21.4"/>
</g>
<g>
	<rect x="35.3" y="-75.7" class="st0" width="32" height="32"/>
	<path class="st1" d="M51.3-58.5"/>
	<path class="st2" d="M60.7-62.6c-0.2-5-4.3-9.1-9.4-9.1c-5.1,0-9.2,4-9.4,9.1l-1.8,0v0.6c0,5.7,4.3,10.4,9.8,11.1
		c-0.2,0.3-0.3,0.6-0.3,1c0,0.5,0.2,0.9,0.5,1.2h-3.8c-0.6,0-1.1,0.5-1.1,1h12.4c0-0.6-0.5-1-1.1-1h-3.8c0.3-0.3,0.5-0.8,0.5-1.2
		c0-0.4-0.1-0.7-0.3-1c5.5-0.7,9.8-5.4,9.8-11.1v-0.6H60.7L60.7-62.6z M51.3-69.4c4,0,7.2,3.2,7.2,7.2c0,4-3.2,7.2-7.2,7.2
		c-4,0-7.2-3.2-7.2-7.2C44.1-66.2,47.3-69.4,51.3-69.4z M51.3-51.9c-5.4,0-9.8-4.2-10.1-9.5h0.7c0.4,4.9,4.4,8.7,9.4,8.7
		c5,0,9-3.8,9.4-8.7h0.7C61.1-56.1,56.7-51.9,51.3-51.9z"/>
	<path class="st3" d="M51.3-65c-3.1,0-5.7,2.9-5.7,2.9s2.6,2.9,5.7,2.9s5.7-2.9,5.7-2.9S54.4-65,51.3-65z M51.3-59.5
		c-1.4,0-2.5-1.1-2.5-2.5c0-1.4,1.1-2.5,2.5-2.5c1.4,0,2.5,1.1,2.5,2.5C53.8-60.6,52.7-59.5,51.3-59.5z"/>
	<path class="st3" d="M51.3-63.8c-0.2,0-0.4,0-0.5,0.1c0.1,0.1,0.2,0.3,0.2,0.5c0,0.4-0.3,0.7-0.7,0.7c-0.2,0-0.5-0.1-0.6-0.3
		c-0.1,0.2-0.2,0.5-0.2,0.7c0,1,0.8,1.8,1.8,1.8s1.8-0.8,1.8-1.8S52.3-63.8,51.3-63.8z"/>
</g>
<rect x="-36.5" y="-71.7" class="st2" width="28" height="15.8"/>
<g>
	<rect class="st0" width="32" height="32"/>
	<path class="st1" d="M16,17.2"/>
</g>
<polygon class="st2" points="13.9,14.2 13.9,10.1 16.7,12.2 19.5,14.2 16.7,16.3 13.9,18.3 "/>
<g>
	<rect y="-75.8" class="st0" width="32" height="32"/>
	<path class="st1" d="M16-58.6"/>
</g>
<polygon class="st3" points="13.2,-61.4 13.2,-65.5 16,-63.4 18.8,-61.4 16,-59.3 13.2,-57.3 "/>
<g>
	<path class="st2" d="M28.6-71.7H3.4c-0.7,0-1.3,0.6-1.3,1.3v18c0,0.7,0.6,1.3,1.3,1.3h25.3c0.7,0,1.3-0.6,1.3-1.3v-18
		C29.9-71.1,29.3-71.7,28.6-71.7L28.6-71.7z M28-53H4v-16.8h24V-53z M28-53"/>
	<path class="st2" d="M2.1-48.3c0,0.4,0.3,0.7,0.7,0.7h6.8V-49H2.8C2.4-49,2.1-48.6,2.1-48.3L2.1-48.3z M2.1-48.3"/>
	<path class="st2" d="M29.2-49H12.3v1.4h16.9c0.4,0,0.7-0.3,0.7-0.7C29.9-48.6,29.6-49,29.2-49L29.2-49z M29.2-49"/>
	<path class="st2" d="M10.9-49.7c-0.5,0-0.8,0.4-0.8,0.8v1.2c0,0.5,0.4,0.8,0.8,0.8c0.5,0,0.8-0.4,0.8-0.8v-1.2
		C11.8-49.3,11.4-49.7,10.9-49.7L10.9-49.7z M10.9-49.7"/>
</g>
<rect x="10.3" y="-29.9" class="st0" width="11.5" height="14.1"/>
<text transform="matrix(1 0 0 1 12.6605 -19.2392)" class="st3" style="font-family:'OpenSans-Bold'; font-size:14px;">?</text>
<g>
	<path class="st2" d="M28.6-34.4H3.4c-0.7,0-1.3,0.6-1.3,1.3v18c0,0.7,0.6,1.3,1.3,1.3h25.3c0.7,0,1.3-0.6,1.3-1.3v-18
		C29.9-33.8,29.3-34.4,28.6-34.4L28.6-34.4z M28-15.7H4v-16.8h24V-15.7z M28-15.7"/>
	<path class="st2" d="M2.1-11c0,0.4,0.3,0.7,0.7,0.7h6.8v-1.4H2.8C2.4-11.7,2.1-11.4,2.1-11L2.1-11z M2.1-11"/>
	<path class="st2" d="M29.2-11.7H12.3v1.4h16.9c0.4,0,0.7-0.3,0.7-0.7C29.9-11.4,29.6-11.7,29.2-11.7L29.2-11.7z M29.2-11.7"/>
	<path class="st2" d="M10.9-12.4c-0.5,0-0.8,0.4-0.8,0.8v1.2c0,0.5,0.4,0.8,0.8,0.8c0.5,0,0.8-0.4,0.8-0.8v-1.2
		C11.8-12.1,11.4-12.4,10.9-12.4L10.9-12.4z M10.9-12.4"/>
</g>
<path class="st2" d="M29.9,15.9"/>
<path class="st2" d="M29.9,15.9"/>
<path class="st2" d="M16.3,24.7"/>
<path class="st4" d="M13.7,24.8H3.5c-0.8,0-1.4-0.6-1.4-1.4V5.6c0-0.8,0.6-1.4,1.4-1.4h25c0.8,0,1.4,0.6,1.4,1.4v11.7"/>
<path class="st5" d="M16,18.4"/>
<g>
	<g>
		<path class="st6" d="M28.9,21.3l-3-3.3c-0.6-0.6-1.6-0.6-2.2,0c-0.2,0.2-0.3,0.4-0.4,0.7c-0.6-0.5-1.5-0.4-2,0.1
			c-0.2,0.2-0.3,0.4-0.4,0.7c-0.6-0.5-1.5-0.4-2,0.1c-0.2,0.2-0.3,0.4-0.4,0.6L17,18.8c-0.6-0.6-1.6-0.6-2.2,0
			c-0.6,0.6-0.6,1.6,0,2.2l5.5,5.5L17.1,27c-0.9,0.1-1.5,0.9-1.5,1.8c0,0.7,0.5,1.2,1.2,1.2h7.6c1.2,0,2.3-0.5,3.1-1.3l1.3-1.3
			c0.8-0.8,1.3-1.9,1.3-3.1C30,23.2,29.6,22.1,28.9,21.3z M24.3,20.2c0.2-0.2,0.2-0.4,0-0.6l0,0c-0.1-0.1-0.2-0.3-0.2-0.5
			s0.1-0.4,0.2-0.5c0.3-0.3,0.8-0.3,1,0l3,3.3c0.6,0.7,0.9,1.5,0.9,2.4c0,1-0.4,1.9-1.1,2.6l-1.3,1.3c-0.7,0.7-1.6,1.1-2.6,1.1h-7.6
			c-0.2,0-0.4-0.2-0.4-0.4c0-0.5,0.4-0.9,0.9-1l4-0.6c0.1,0,0.3-0.1,0.3-0.3c0-0.1,0-0.3-0.1-0.4l-6-6c-0.3-0.3-0.3-0.8,0-1
			c0.1-0.1,0.3-0.2,0.5-0.2c0.2,0,0.4,0.1,0.5,0.2l4,4c0.2,0.2,0.4,0.2,0.6,0c0.1-0.1,0.1-0.2,0.1-0.3c0-0.1,0-0.2-0.1-0.3l-1.6-1.6
			c-0.3-0.3-0.3-0.8,0-1c0.3-0.3,0.8-0.3,1,0l1.6,1.6c0.2,0.2,0.4,0.2,0.6,0c0.1-0.1,0.1-0.2,0.1-0.3c0-0.1,0-0.2-0.1-0.3l-0.8-0.8
			c-0.3-0.3-0.3-0.8,0-1c0.3-0.3,0.8-0.3,1,0c0,0,0.8,0.7,0.8,0.8S24.1,20.4,24.3,20.2z"/>
	</g>
</g>
</svg>
